<svg id="Capa_1" data-name="Capa 1" xmlns="http://www.w3.org/2000/svg" viewBox="0 0 39.64 31.45"><defs><style>.cls-1{fill:#fff;}</style></defs><path class="cls-1" d="M14.46,18.21a1.22,1.22,0,0,1-1.33-1.33,1.38,1.38,0,0,1,.31-.94,1,1,0,0,1,.82-.36.8.8,0,0,1,.34.07l.13,0h.07c.11,0,.17-.07.17-.23a.79.79,0,0,0-.19-.47,1.67,1.67,0,0,0-.49-.4,3.09,3.09,0,0,0-.71-.27,4,4,0,0,0-.85-.1,4.57,4.57,0,0,0-2.28.66,9.48,9.48,0,0,0-2.23,1.79,16.46,16.46,0,0,0-2,2.66A21.21,21.21,0,0,0,4.52,22.6,21.69,21.69,0,0,0,3.4,26.19,16.91,16.91,0,0,0,3,29.82a9.42,9.42,0,0,0,.25,2.29A3.77,3.77,0,0,0,4,33.65a3,3,0,0,0,1.34.88,6,6,0,0,0,2,.28,9.82,9.82,0,0,0,3.3-.56,12,12,0,0,0,3.1-1.64,16.11,16.11,0,0,0,2.85-2.67,22.21,22.21,0,0,0,2.52-3.66L20,24.6l.49.35-1,1.67a20.66,20.66,0,0,1-5.74,6.86A11.52,11.52,0,0,1,7,35.72,6.78,6.78,0,0,1,1.88,34a6.94,6.94,0,0,1-1.7-5.07,15.72,15.72,0,0,1,.14-2,19.65,19.65,0,0,1,.42-2.08A19,19,0,0,1,2.58,20.3a17,17,0,0,1,2.73-3.58,12.4,12.4,0,0,1,3.32-2.36,8.4,8.4,0,0,1,3.65-.85,4,4,0,0,1,3,1,2.91,2.91,0,0,1,.63.92,2.48,2.48,0,0,1,.22,1,1.82,1.82,0,0,1-.44,1.27A1.59,1.59,0,0,1,14.46,18.21Z" transform="translate(-0.18 -4.28)"/><path class="cls-1" d="M26.31,21.3A23.59,23.59,0,0,1,31,15.45a7.19,7.19,0,0,1,4.68-1.94,4.16,4.16,0,0,1,1.9.4,3.55,3.55,0,0,1,1.31,1.15,5.13,5.13,0,0,1,.75,1.73A9.89,9.89,0,0,1,39.82,19a15,15,0,0,1-.25,2.67A20.65,20.65,0,0,1,37.26,28a18.32,18.32,0,0,1-2,2.85A15.13,15.13,0,0,1,33.06,33a13.54,13.54,0,0,1-2.33,1.51,11.36,11.36,0,0,1-2.31.88,8.3,8.3,0,0,1-2.13.29,7.71,7.71,0,0,1-2.37-.33,4.7,4.7,0,0,1-1.72-1,3.9,3.9,0,0,1-1-1.49A5,5,0,0,1,20.8,31,10.65,10.65,0,0,1,21,28.93a17.26,17.26,0,0,1,.66-2.36l8.1-22.29H32.5ZM35,14.41A4.35,4.35,0,0,0,33,15,9.62,9.62,0,0,0,31,16.45a18.13,18.13,0,0,0-2,2.2,29.33,29.33,0,0,0-1.88,2.66c-.59.94-1.14,1.91-1.64,2.9s-.92,2-1.28,2.93a23.47,23.47,0,0,0-.84,2.7A9.34,9.34,0,0,0,23,32.07a3,3,0,0,0,.73,2.14A2.92,2.92,0,0,0,26,35a5.57,5.57,0,0,0,1.88-.42A8.24,8.24,0,0,0,30.28,33a17.1,17.1,0,0,0,2.65-3.17,28.16,28.16,0,0,0,2.66-5.24,29.5,29.5,0,0,0,1.31-4,13.29,13.29,0,0,0,.43-3.09,4,4,0,0,0-.56-2.34A2,2,0,0,0,35,14.41Z" transform="translate(-0.18 -4.28)"/></svg>